<?xml version="1.0" encoding="UTF-8" standalone="no"?>
<!-- Created with Inkscape (http://www.inkscape.org/) -->

<svg
   xmlns:dc="http://purl.org/dc/elements/1.1/"
   xmlns:cc="http://creativecommons.org/ns#"
   xmlns:rdf="http://www.w3.org/1999/02/22-rdf-syntax-ns#"
   xmlns:svg="http://www.w3.org/2000/svg"
   xmlns="http://www.w3.org/2000/svg"
   xmlns:sodipodi="http://sodipodi.sourceforge.net/DTD/sodipodi-0.dtd"
   xmlns:inkscape="http://www.inkscape.org/namespaces/inkscape"
   width="39.463581mm"
   height="44.053757mm"
   viewBox="0 0 39.463581 44.053757"
   version="1.1"
   id="svg8"
   inkscape:version="0.92.4 (5da689c313, 2019-01-14)"
   sodipodi:docname="contacts.svg">
  <defs
     id="defs2" />
  <sodipodi:namedview
     id="base"
     pagecolor="#ffffff"
     bordercolor="#666666"
     borderopacity="1.0"
     inkscape:pageopacity="0.0"
     inkscape:pageshadow="2"
     inkscape:zoom="1.979899"
     inkscape:cx="48.874317"
     inkscape:cy="13.81932"
     inkscape:document-units="mm"
     inkscape:current-layer="layer1"
     showgrid="false"
     showguides="true"
     inkscape:guide-bbox="true"
     fit-margin-top="0"
     fit-margin-left="0"
     fit-margin-right="0"
     fit-margin-bottom="0"
     inkscape:window-width="1920"
     inkscape:window-height="1138"
     inkscape:window-x="-8"
     inkscape:window-y="-8"
     inkscape:window-maximized="1">
    <sodipodi:guide
       position="27.081435,38.268817"
       orientation="0,1"
       id="guide898"
       inkscape:locked="false" />
  </sodipodi:namedview>
  <metadata
     id="metadata5">
    <rdf:RDF>
      <cc:Work
         rdf:about="">
        <dc:format>image/svg+xml</dc:format>
        <dc:type
           rdf:resource="http://purl.org/dc/dcmitype/StillImage" />
        <dc:title></dc:title>
      </cc:Work>
    </rdf:RDF>
  </metadata>
  <g
     inkscape:label="Layer 1"
     inkscape:groupmode="layer"
     id="layer1"
     transform="translate(-17.956788,-111.27476)">
    <path
       style="fill:#666666;fill-opacity:1;stroke:#666666;stroke-width:2.65700793;stroke-linecap:round;stroke-linejoin:round;stroke-miterlimit:4;stroke-dasharray:none;stroke-opacity:1"
       d="m 95.447266,421.89453 v 17.42969 h -11.875 c 0,0 -5.039305,-0.70678 -9.496094,3.75 -4.456789,4.45678 -4.769531,9.08789 -4.769531,9.08789 v 118.39258 c 0,0 -1.328631,6.68895 4.46289,11.23047 5.791522,4.54151 9.087891,3.92773 9.087891,3.92773 H 203.75 c 0,0 5.38879,-0.67587 8.19336,-3.48047 2.80457,-2.80456 3.75,-8.37305 3.75,-8.37304 V 454.93555 c 0,0 -0.0774,-7.73364 -3.91406,-11.57032 -3.83669,-3.83667 -13.03125,-4.04101 -13.03125,-4.04101 h -9.32813 v -17.42969 h -19.19726 v 17.42969 h -55.58008 v -17.42969 z m 46.740234,44.91016 c 13.70137,7e-5 24.80851,11.10724 24.80859,24.80859 -8e-5,13.70136 -11.10722,24.80852 -24.80859,24.8086 -13.70138,-8e-5 -24.80851,-11.10721 -24.80859,-24.8086 8e-5,-13.70139 11.10721,-24.80852 24.80859,-24.80859 z m -0.59961,62.82812 c 24.85166,4e-5 44.99792,12.05337 44.99805,26.92188 -0.0189,1.9855 -0.40455,3.96369 -1.15039,5.89843 H 97.720703 c -0.739272,-1.93519 -1.11853,-3.91335 -1.130859,-5.89843 1.32e-4,-14.86851 20.146386,-26.92184 44.998046,-26.92188 z"
       transform="scale(0.26458333)"
       id="rect863"
       inkscape:connector-curvature="0" />
  </g>
</svg>
